<?xml version="1.0" standalone="no"?>
<!DOCTYPE svg PUBLIC "-//W3C//DTD SVG 20010904//EN"
 "http://www.w3.org/TR/2001/REC-SVG-20010904/DTD/svg10.dtd">
<svg version="1.0" xmlns="http://www.w3.org/2000/svg"
 width="710.000000pt" height="212.000000pt" viewBox="0 0 710.000000 212.000000"
 preserveAspectRatio="xMidYMid meet">

<g transform="translate(0.000000,212.000000) scale(0.100000,-0.100000)"
fill="#ffffff" stroke="none">
<path fill='#ff6702' d="M17 2103 c-4 -3 -7 -258 -7 -565 0 -477 2 -563 15 -588 11 -22 48
-46 158 -101 90 -45 150 -70 160 -66 16 6 17 52 17 567 0 484 -2 565 -15 591
-12 23 -46 45 -155 99 -137 68 -160 77 -173 63z"/>
<path fill='#ff6702' d="M1605 1782 c-96 -50 -135 -76 -152 -101 l-23 -34 0 -694 c0 -640 1
-694 17 -700 27 -11 197 82 239 130 46 54 79 119 93 185 16 77 15 1254 -1
1270 -20 20 -38 14 -173 -56z"/>
<path  d="M3862 1619 c-214 -36 -388 -177 -454 -369 -33 -95 -33 -286 0 -382
59 -169 207 -303 393 -354 101 -28 282 -24 382 9 179 58 307 183 368 357 18
53 22 86 22 180 0 135 -19 206 -85 308 -123 190 -377 292 -626 251z m269 -231
c72 -33 134 -94 168 -167 23 -49 26 -68 26 -161 0 -93 -3 -112 -26 -161 -34
-72 -96 -134 -168 -168 -49 -23 -69 -26 -156 -26 -89 0 -106 3 -157 28 -122
60 -192 178 -192 327 0 168 83 289 235 344 69 25 199 18 270 -16z"/>
<path  d="M2280 1061 l0 -561 120 0 120 0 0 180 0 180 89 0 90 0 123 -180 123
-179 133 -1 134 0 -35 48 c-87 121 -239 343 -236 345 2 1 30 15 61 31 69 34
121 89 157 165 22 48 26 69 26 151 -1 81 -5 103 -27 151 -33 72 -84 128 -147
162 -103 57 -123 60 -438 64 l-293 5 0 -561z m536 344 c112 -33 160 -157 99
-261 -41 -69 -86 -85 -252 -87 l-138 -2 -3 183 -2 182 123 0 c80 0 141 -5 173
-15z"/>
<path  d="M4810 1060 l0 -560 120 0 120 0 0 168 0 168 64 63 63 63 189 -231
189 -231 137 0 c76 0 138 2 138 5 0 3 -111 146 -246 317 l-245 310 23 27 c14
14 113 121 221 238 108 116 197 214 197 217 0 3 -60 6 -133 6 l-132 0 -225
-239 c-124 -132 -228 -240 -232 -240 -5 -1 -8 107 -8 239 l0 240 -120 0 -120
0 0 -560z"/>
<path  d="M6070 1060 l0 -560 120 0 120 0 0 168 0 168 63 62 64 63 188 -231
188 -230 139 0 c109 0 138 3 132 12 -4 7 -115 149 -246 314 -131 166 -238 304
-238 307 0 3 100 113 221 244 l222 238 -134 3 -134 3 -145 -153 c-79 -84 -184
-193 -232 -243 l-88 -90 0 243 0 242 -120 0 -120 0 0 -560z"/>
<path fill='#ff6702' d="M487 1403 c-4 -3 -7 -151 -7 -327 0 -286 2 -325 18 -356 14 -30 38
-46 164 -110 125 -64 148 -72 162 -61 14 12 16 52 16 333 0 276 -2 325 -16
355 -15 30 -36 44 -155 104 -132 65 -167 78 -182 62z"/>
<path fill='#ff6702' d="M1129 1215 c-70 -36 -136 -76 -148 -91 -20 -26 -21 -37 -21 -301 0
-224 3 -275 14 -279 21 -8 290 131 315 162 20 26 21 37 21 300 l0 274 -27 -1
c-16 0 -85 -29 -154 -64z"/>
<path fill='#ff6702' d="M21 781 c-10 -7 -12 -35 -9 -127 3 -105 7 -126 32 -176 52 -109 87
-133 433 -306 l314 -157 102 0 103 0 133 65 c187 91 181 82 181 291 0 148 -2
170 -16 176 -11 4 -87 -28 -201 -85 -101 -51 -190 -92 -198 -92 -8 0 -204 94
-435 210 -231 116 -421 210 -422 210 -2 0 -9 -4 -17 -9z"/>
</g>
</svg>
